<svg width="45" height="28" viewBox="0 0 45 28" fill="none" xmlns="http://www.w3.org/2000/svg">
<path d="M44.4562 9.88248L39.0518 8.72705L40.4495 11.159L19.0274 23.5986L10.6505 19.8807L0 25.6951L0.894528 27.3258L10.7343 21.9586L19.1392 25.6951L41.3719 12.7711L42.7417 15.1378L44.4562 9.88248Z" fill="white"/>
<path d="M13.6325 15.7247C12.9542 14.2144 11.7529 12.9999 10.2501 12.305C11.0892 11.7553 11.7285 10.9495 12.0728 10.0073C12.4172 9.06511 12.4483 8.03695 12.1614 7.0757C11.8746 6.11445 11.2852 5.27144 10.4808 4.67205C9.67643 4.07266 8.70009 3.74889 7.69695 3.74889C6.69382 3.74889 5.71747 4.07266 4.9131 4.67205C4.10874 5.27144 3.51931 6.11445 3.23247 7.0757C2.94564 8.03695 2.97672 9.06511 3.32108 10.0073C3.66545 10.9495 4.30472 11.7553 5.14382 12.305C3.90775 12.8974 2.86778 13.8322 2.14758 14.9984C1.42737 16.1646 1.05723 17.5131 1.08117 18.8836V22.8437L10.688 17.3274L13.8096 18.7251L18.9345 20.9149L25.9136 16.964L26.4914 16.582L37.4587 10.3762C36.8148 9.59804 36.0022 8.97667 35.0826 8.5592C35.9227 8.01023 36.5631 7.20463 36.9085 6.26232C37.2539 5.32001 37.2858 4.29136 36.9994 3.32948C36.713 2.3676 36.1236 1.52391 35.3191 0.923996C34.5145 0.324077 33.5377 0 32.5341 0C31.5305 0 30.5537 0.324077 29.7491 0.923996C28.9446 1.52391 28.3552 2.3676 28.0688 3.32948C27.7824 4.29136 27.8143 5.32001 28.1597 6.26232C28.505 7.20463 29.1455 8.01023 29.9856 8.5592C28.945 9.06687 28.0453 9.8229 27.3661 10.7606C26.6868 11.6982 26.2488 12.7887 26.0907 13.9357C25.8061 13.154 25.3651 12.4386 24.7948 11.833C24.2245 11.2274 23.5367 10.7444 22.7735 10.4135C23.6073 9.86007 24.2407 9.05289 24.5801 8.11142C24.9194 7.16995 24.9465 6.14425 24.6575 5.18614C24.3685 4.22804 23.7787 3.38846 22.9753 2.79169C22.172 2.19493 21.1978 1.87269 20.1971 1.87269C19.1963 1.87269 18.2222 2.19493 17.4188 2.79169C16.6155 3.38846 16.0256 4.22804 15.7366 5.18614C15.4476 6.14425 15.4747 7.16995 15.814 8.11142C16.1534 9.05289 16.7868 9.86007 17.6206 10.4135C16.5813 10.9054 15.6781 11.644 14.9895 12.5648C14.3009 13.4856 13.8478 14.5608 13.6698 15.6968" fill="white"/>
</svg>
