<svg width="32" height="26" viewBox="0 0 32 26" fill="none" xmlns="http://www.w3.org/2000/svg">
<path d="M30.5 1H27.95C27.85 0.45 27.35 0 26.75 0C26.15 0 25.65 0.45 25.55 1H24.5C24.4 0.45 23.9 0 23.3 0C22.7 0 22.2 0.45 22.1 1H9.95C9.85 0.45 9.35 0 8.75 0C8.15 0 7.65 0.45 7.55 1H6.5C6.4 0.45 5.9 0 5.3 0C4.7 0 4.15 0.45 4.05 1H1.5C0.65 1 0 1.65 0 2.5V5.5V21.5V24.5C0 25.35 0.65 26 1.5 26H30.5C31.35 26 32 25.35 32 24.5V17.5V16.5V5.5V2.5C32 1.65 31.35 1 30.5 1ZM26.5 1.25C26.5 1.1 26.6 1 26.75 1C26.9 1 27 1.1 27 1.25V2.75C27 2.9 26.9 3 26.75 3C26.6 3 26.5 2.9 26.5 2.75V1.25ZM23 1.25C23 1.1 23.1 1 23.25 1C23.4 1 23.5 1.1 23.5 1.25V2.75C23.5 2.9 23.4 3 23.25 3C23.1 3 23 2.9 23 2.75V1.25ZM8.5 1.25C8.5 1.1 8.6 1 8.75 1C8.9 1 9 1.1 9 1.25V2.75C9 2.9 8.9 3 8.75 3C8.6 3 8.5 2.9 8.5 2.75V1.25ZM5 1.25C5 1.1 5.1 1 5.25 1C5.4 1 5.5 1.1 5.5 1.25V2.75C5.5 2.9 5.4 3 5.25 3C5.1 3 5 2.9 5 2.75V1.25ZM31 24.5C31 24.8 30.8 25 30.5 25H1.5C1.2 25 1 24.8 1 24.5V23.5C1.4 23.8 1.95 24 2.5 24H24.5H25.5C27.8 24 29.85 22.8 31 20.95V24.5ZM31 16.5C31 18.15 28.75 19 27.5 19C27.2 19 27 19.2 27 19.5C27 20.75 26.15 23 24.5 23H2.5C1.65 23 1 22.35 1 21.5V6H31V16.5Z" fill="white"/>
</svg>
