<svg width="33" height="26" viewBox="0 0 33 26" fill="none" xmlns="http://www.w3.org/2000/svg">
<path d="M17.2773 9C14.7961 9 12.7773 11.0187 12.7773 13.5C12.7773 15.9813 14.7961 18 17.2773 18C19.7586 18 21.7773 15.9813 21.7773 13.5C21.7773 11.0186 19.7586 9 17.2773 9ZM16.854 15.6615L15.1075 13.9147L15.8333 13.1891L16.854 14.2101L19.1064 11.9578L19.8319 12.6835L16.854 15.6615Z" fill="white"/>
<path d="M31.2773 1H28.7273C28.6273 0.45 28.1273 0 27.5273 0C26.9273 0 26.4273 0.45 26.3273 1H25.2773C25.1773 0.45 24.6773 0 24.0773 0C23.4773 0 22.9773 0.45 22.8773 1H10.7273C10.6273 0.45 10.1273 0 9.52734 0C8.92734 0 8.42734 0.45 8.32734 1H7.27734C7.17734 0.45 6.67734 0 6.07734 0C5.47734 0 4.92734 0.45 4.82734 1H2.27734C1.42734 1 0.777344 1.65 0.777344 2.5V5.5V21.5V24.5C0.777344 25.35 1.42734 26 2.27734 26H31.2773C32.1273 26 32.7773 25.35 32.7773 24.5V17.5V16.5V5.5V2.5C32.7773 1.65 32.1273 1 31.2773 1ZM27.2773 1.25C27.2773 1.1 27.3773 1 27.5273 1C27.6773 1 27.7773 1.1 27.7773 1.25V2.75C27.7773 2.9 27.6773 3 27.5273 3C27.3773 3 27.2773 2.9 27.2773 2.75V1.25ZM23.7773 1.25C23.7773 1.1 23.8773 1 24.0273 1C24.1773 1 24.2773 1.1 24.2773 1.25V2.75C24.2773 2.9 24.1773 3 24.0273 3C23.8773 3 23.7773 2.9 23.7773 2.75V1.25ZM9.27734 1.25C9.27734 1.1 9.37734 1 9.52734 1C9.67734 1 9.77734 1.1 9.77734 1.25V2.75C9.77734 2.9 9.67734 3 9.52734 3C9.37734 3 9.27734 2.9 9.27734 2.75V1.25ZM5.77734 1.25C5.77734 1.1 5.87734 1 6.02734 1C6.17734 1 6.27734 1.1 6.27734 1.25V2.75C6.27734 2.9 6.17734 3 6.02734 3C5.87734 3 5.77734 2.9 5.77734 2.75V1.25ZM31.7773 24.5C31.7773 24.8 31.5773 25 31.2773 25H2.27734C1.97734 25 1.77734 24.8 1.77734 24.5V23.5C2.17734 23.8 2.72734 24 3.27734 24H25.2773H26.2773C28.5773 24 30.6273 22.8 31.7773 20.95V24.5ZM31.7773 16.5C31.7773 18.15 29.5273 19 28.2773 19C27.9773 19 27.7773 19.2 27.7773 19.5C27.7773 20.75 26.9273 23 25.2773 23H3.27734C2.42734 23 1.77734 22.35 1.77734 21.5V6H31.7773V16.5Z" fill="white"/>
</svg>
