<svg width="457" height="49" viewBox="0 0 457 49" fill="none" xmlns="http://www.w3.org/2000/svg">
<path d="M14.7515 25.7905L12.4688 25.6831L7.74219 48H0.544922L10.5889 0.734375H22.4858C24.9565 0.734375 26.6932 1.23568 27.6958 2.23828C28.6984 3.24089 29.1997 4.62842 29.1997 6.40088C29.2176 8.10173 28.9132 10.4292 28.2866 13.3833C27.66 16.2837 26.8901 18.4679 25.9771 19.936C25.064 21.4399 23.7301 22.4515 21.9756 22.9707C23.5153 23.2572 24.4105 24.3582 24.6611 26.2739C24.9118 28.2075 24.3926 32.2 23.1035 38.2515C21.8145 44.2671 21.2147 47.5166 21.3042 48H14.1069C13.9995 47.624 15.1095 41.9754 17.437 31.0542C17.8667 28.9595 17.9025 27.5719 17.5444 26.8916C17.1864 26.1755 16.2554 25.8084 14.7515 25.7905ZM16.6313 6.2666L13.6772 20.0972H16.5508C17.4639 20.0972 18.18 19.8913 18.6992 19.4795C19.2184 19.0856 19.675 18.3784 20.0688 17.3579C20.4448 16.409 20.8566 14.8783 21.3042 12.7656L21.3848 12.4702C21.9219 9.90999 22.0562 8.236 21.7876 7.44824C21.5369 6.66048 20.6328 6.2666 19.0752 6.2666H16.6313ZM41.6359 48H25.4689L35.5129 0.734375H51.3576L50.0148 6.93799H41.3674L38.467 20.688H46.6848L45.3957 26.7573H37.1779L33.9821 41.7964H42.9519L41.6359 48ZM54.6898 33.7935H60.8666L62.7465 10.0532H62.6391L54.6898 33.7935ZM49.9633 48H43.0346L59.8192 0.734375H69.3261L66.4525 48H59.7387L60.3832 39.5674H52.7562L49.9633 48ZM85.4952 48H69.1939L79.2379 0.734375H86.4352L77.6803 41.877H86.7843L85.4952 48ZM103.759 48H87.4578L97.5018 0.734375H104.699L95.9441 41.877H105.048L103.759 48ZM116.571 48H109.374L113.375 29.1206L111.496 0.734375H118.371L119.284 18.4053H119.391L127.313 0.734375H134.162L120.573 29.1206L116.571 48ZM142.169 48.4834C139.197 48.4834 137.12 47.3197 135.938 44.9922C134.739 42.6468 134.667 39.0392 135.724 34.1694L140.101 13.625C141.032 9.1849 142.607 5.83691 144.828 3.58105C147.048 1.3252 149.993 0.197266 153.663 0.197266C158.318 0.197266 160.896 1.92497 161.397 5.38037C161.702 7.5109 161.469 10.3486 160.699 13.8936L160.001 17.2505H153.287L154.334 12.3091C154.8 10.1248 154.898 8.60303 154.63 7.74365C154.361 6.86637 153.591 6.42773 152.32 6.42773C151.067 6.42773 150.064 6.95589 149.312 8.01221C148.56 9.10433 147.907 10.9574 147.352 13.5713L143.001 34.062C142.339 37.1056 142.106 39.263 142.303 40.5342C142.518 41.7516 143.297 42.3604 144.64 42.3604C146.018 42.3604 147.119 41.7069 147.943 40.3999C148.766 39.0929 149.518 36.8908 150.199 33.7935L151.541 27.4287H147.916L149.044 22.1919H158.954L153.475 48H150.252L150.118 43.354C149.384 44.9653 148.292 46.2186 146.842 47.1138C145.392 48.0269 143.834 48.4834 142.169 48.4834ZM173.887 34.8677L178.587 12.8462C179.106 10.6082 179.24 8.979 178.99 7.9585C178.757 6.92008 178.041 6.40088 176.841 6.40088C175.642 6.40088 174.684 6.91113 173.968 7.93164C173.252 8.93424 172.652 10.5635 172.169 12.8193L167.469 34.8677C166.878 37.6069 166.681 39.5405 166.878 40.6685C167.057 41.7606 167.809 42.3066 169.134 42.3066C170.441 42.3066 171.417 41.7516 172.061 40.6416C172.724 39.4958 173.332 37.5711 173.887 34.8677ZM160.245 34.7871L164.837 13.1685C166.681 4.50309 171.139 0.17041 178.211 0.17041C181.792 0.17041 184.173 1.25358 185.355 3.41992C186.536 5.56836 186.662 8.81787 185.731 13.1685L181.138 34.7871C180.154 39.46 178.587 42.9243 176.439 45.1802C174.29 47.4181 171.417 48.5371 167.818 48.5371C164.237 48.5371 161.829 47.4092 160.594 45.1533C159.376 42.8796 159.26 39.4242 160.245 34.7871ZM198.543 34.8677L203.242 12.8462C203.762 10.6082 203.896 8.979 203.645 7.9585C203.413 6.92008 202.696 6.40088 201.497 6.40088C200.297 6.40088 199.339 6.91113 198.623 7.93164C197.907 8.93424 197.307 10.5635 196.824 12.8193L192.124 34.8677C191.533 37.6069 191.337 39.5405 191.533 40.6685C191.713 41.7606 192.464 42.3066 193.789 42.3066C195.096 42.3066 196.072 41.7516 196.717 40.6416C197.379 39.4958 197.988 37.5711 198.543 34.8677ZM184.9 34.7871L189.492 13.1685C191.337 4.50309 195.795 0.17041 202.867 0.17041C206.447 0.17041 208.828 1.25358 210.01 3.41992C211.192 5.56836 211.317 8.81787 210.386 13.1685L205.794 34.7871C204.809 39.46 203.242 42.9243 201.094 45.1802C198.946 47.4181 196.072 48.5371 192.473 48.5371C188.893 48.5371 186.485 47.4092 185.249 45.1533C184.032 42.8796 183.915 39.4242 184.9 34.7871ZM223.386 6.2666L215.706 42.4141H218.069C219.376 42.4141 220.423 41.9844 221.211 41.125C221.999 40.2477 222.634 38.6722 223.118 36.3984L228.059 13.061C228.596 10.6082 228.668 8.86263 228.274 7.82422C227.88 6.78581 226.958 6.2666 225.508 6.2666H223.386ZM217.693 48H207.327L217.371 0.734375H227.979C231.398 0.734375 233.69 1.74593 234.854 3.76904C236.017 5.77425 236.169 8.80892 235.31 12.873L230.798 34.1963C229.778 38.9587 228.247 42.4499 226.206 44.6699C224.165 46.89 221.327 48 217.693 48ZM246.218 48H239.853L249.897 0.734375H258.84L258.195 35.2705L271.865 0.734375H280.861L270.817 48H264.399L268.132 30.3828L271.838 14.2158L258.329 47.7852H252.609L253.12 14.2158L249.951 30.3828L246.218 48ZM285.241 33.7935H291.418L293.297 10.0532H293.19L285.241 33.7935ZM280.514 48H273.586L290.37 0.734375H299.877L297.004 48H290.29L290.934 39.5674H283.307L280.514 48ZM313.951 25.7905L311.669 25.6831L306.942 48H299.745L309.789 0.734375H321.686C324.157 0.734375 325.893 1.23568 326.896 2.23828C327.898 3.24089 328.4 4.62842 328.4 6.40088C328.418 8.10173 328.113 10.4292 327.487 13.3833C326.86 16.2837 326.09 18.4679 325.177 19.936C324.264 21.4399 322.93 22.4515 321.176 22.9707C322.715 23.2572 323.61 24.3582 323.861 26.2739C324.112 28.2075 323.593 32.2 322.304 38.2515C321.014 44.2671 320.415 47.5166 320.504 48H313.307C313.2 47.624 314.31 41.9754 316.637 31.0542C317.067 28.9595 317.103 27.5719 316.744 26.8916C316.386 26.1755 315.455 25.8084 313.951 25.7905ZM315.831 6.2666L312.877 20.0972H315.751C316.664 20.0972 317.38 19.8913 317.899 19.4795C318.418 19.0856 318.875 18.3784 319.269 17.3579C319.645 16.409 320.057 14.8783 320.504 12.7656L320.585 12.4702C321.122 9.90999 321.256 8.236 320.988 7.44824C320.737 6.66048 319.833 6.2666 318.275 6.2666H315.831ZM331.92 48H324.669L334.713 0.734375H341.91L337.264 22.4873L349.107 0.734375H356.546L343.736 24.0449L347.12 48H339.52L336.593 25.9248L331.92 48ZM364.686 48H348.519L358.563 0.734375H374.407L373.065 6.93799H364.417L361.517 20.688H369.735L368.445 26.7573H360.228L357.032 41.7964H366.002L364.686 48ZM377.82 48H370.65L379.351 6.96484H373.819L375.162 0.734375H393.182L391.839 6.96484H386.521L377.82 48ZM401.106 48H384.939L394.983 0.734375H410.828L409.485 6.93799H400.837L397.937 20.688H406.155L404.866 26.7573H396.648L393.452 41.7964H402.422L401.106 48ZM418.86 25.7905L416.577 25.6831L411.85 48H404.653L414.697 0.734375H426.594C429.065 0.734375 430.801 1.23568 431.804 2.23828C432.807 3.24089 433.308 4.62842 433.308 6.40088C433.326 8.10173 433.021 10.4292 432.395 13.3833C431.768 16.2837 430.998 18.4679 430.085 19.936C429.172 21.4399 427.838 22.4515 426.084 22.9707C427.624 23.2572 428.519 24.3582 428.769 26.2739C429.02 28.2075 428.501 32.2 427.212 38.2515C425.923 44.2671 425.323 47.5166 425.412 48H418.215C418.108 47.624 419.218 41.9754 421.545 31.0542C421.975 28.9595 422.011 27.5719 421.653 26.8916C421.295 26.1755 420.364 25.8084 418.86 25.7905ZM420.74 6.2666L417.785 20.0972H420.659C421.572 20.0972 422.288 19.8913 422.807 19.4795C423.327 19.0856 423.783 18.3784 424.177 17.3579C424.553 16.409 424.965 14.8783 425.412 12.7656L425.493 12.4702C426.03 9.90999 426.164 8.236 425.896 7.44824C425.645 6.66048 424.741 6.2666 423.183 6.2666H420.74ZM431.457 34.7065L432.343 30.4902H439.165L438.144 35.2437C437.589 37.8576 437.419 39.7106 437.634 40.8027C437.884 41.859 438.618 42.3872 439.836 42.3872C441.071 42.3872 441.984 41.9486 442.575 41.0713C443.184 40.1582 443.685 38.7259 444.079 36.7744C444.509 34.805 444.518 33.0773 444.106 31.5913C443.694 30.1053 442.889 28.5566 441.689 26.9453L438.977 23.3467C437.688 21.6279 436.792 19.8644 436.291 18.0562C435.772 16.23 435.772 14.1174 436.291 11.7183C437.132 7.79736 438.493 4.89697 440.373 3.01709C442.271 1.1193 445.064 0.17041 448.752 0.17041C452.422 0.17041 454.669 1.28044 455.493 3.50049C456.334 5.72054 456.298 8.9432 455.385 13.1685L454.768 16.0957H448.134L448.859 12.7119C449.343 10.4023 449.495 8.76416 449.316 7.79736C449.119 6.79476 448.465 6.29346 447.355 6.29346C446.245 6.29346 445.359 6.66943 444.697 7.42139C444.052 8.17334 443.569 9.30127 443.247 10.8052C442.924 12.2912 442.915 13.4907 443.22 14.4038C443.542 15.2811 444.204 16.4269 445.207 17.8413L448.215 22.0576C449.755 24.2061 450.766 26.3455 451.25 28.4761C451.751 30.5887 451.751 32.952 451.25 35.5659C450.319 39.9523 448.877 43.2197 446.926 45.3682C444.992 47.4808 442.163 48.5371 438.439 48.5371C434.733 48.5371 432.397 47.3644 431.43 45.019C430.481 42.6379 430.49 39.2004 431.457 34.7065Z" fill="#006DFF"/>
</svg>
