<svg width="200" height="22" viewBox="0 0 200 22" fill="none" xmlns="http://www.w3.org/2000/svg">
<path d="M6.74609 11.3086L5.75 11.2617L3.6875 21H0.546875L4.92969 0.375H10.1211C11.1992 0.375 11.957 0.59375 12.3945 1.03125C12.832 1.46875 13.0508 2.07422 13.0508 2.84766C13.0586 3.58984 12.9258 4.60547 12.6523 5.89453C12.3789 7.16016 12.043 8.11328 11.6445 8.75391C11.2461 9.41016 10.6641 9.85156 9.89844 10.0781C10.5703 10.2031 10.9609 10.6836 11.0703 11.5195C11.1797 12.3633 10.9531 14.1055 10.3906 16.7461C9.82812 19.3711 9.56641 20.7891 9.60547 21H6.46484C6.41797 20.8359 6.90234 18.3711 7.91797 13.6055C8.10547 12.6914 8.12109 12.0859 7.96484 11.7891C7.80859 11.4766 7.40234 11.3164 6.74609 11.3086ZM7.56641 2.78906L6.27734 8.82422H7.53125C7.92969 8.82422 8.24219 8.73438 8.46875 8.55469C8.69531 8.38281 8.89453 8.07422 9.06641 7.62891C9.23047 7.21484 9.41016 6.54688 9.60547 5.625L9.64062 5.49609C9.875 4.37891 9.93359 3.64844 9.81641 3.30469C9.70703 2.96094 9.3125 2.78906 8.63281 2.78906H7.56641ZM18.4775 21H11.4228L15.8056 0.375H22.7197L22.1337 3.08203H18.3603L17.0947 9.08203H20.6806L20.1181 11.7305H16.5322L15.1377 18.293H19.0517L18.4775 21ZM24.1737 14.8008H26.8691L27.6894 4.44141H27.6425L24.1737 14.8008ZM22.1112 21H19.0878L26.412 0.375H30.5605L29.3066 21H26.3769L26.6581 17.3203H23.33L22.1112 21ZM37.6161 21H30.5028L34.8856 0.375H38.0263L34.2059 18.3281H38.1786L37.6161 21ZM45.5858 21H38.4725L42.8553 0.375H45.9959L42.1756 18.3281H46.1483L45.5858 21ZM51.1766 21H48.0359L49.782 12.7617L48.9617 0.375H51.9617L52.3602 8.08594H52.407L55.8641 0.375H58.8523L52.9227 12.7617L51.1766 21ZM62.3464 21.2109C61.0495 21.2109 60.1433 20.7031 59.6277 19.6875C59.1042 18.6641 59.073 17.0898 59.5339 14.9648L61.4441 6C61.8503 4.0625 62.5378 2.60156 63.5066 1.61719C64.4753 0.632812 65.7605 0.140625 67.362 0.140625C69.3933 0.140625 70.5183 0.894531 70.737 2.40234C70.8698 3.33203 70.7683 4.57031 70.4323 6.11719L70.1277 7.58203H67.198L67.655 5.42578C67.8581 4.47266 67.9011 3.80859 67.7839 3.43359C67.6667 3.05078 67.3308 2.85938 66.7761 2.85938C66.2292 2.85938 65.7917 3.08984 65.4636 3.55078C65.1355 4.02734 64.8503 4.83594 64.6081 5.97656L62.7097 14.918C62.4206 16.2461 62.3191 17.1875 62.405 17.7422C62.4987 18.2734 62.8386 18.5391 63.4245 18.5391C64.0261 18.5391 64.5066 18.2539 64.8659 17.6836C65.2253 17.1133 65.5534 16.1523 65.8503 14.8008L66.4362 12.0234H64.8542L65.3464 9.73828H69.6706L67.28 21H65.8737L65.8152 18.9727C65.4948 19.6758 65.0183 20.2227 64.3855 20.6133C63.7527 21.0117 63.073 21.2109 62.3464 21.2109ZM76.1872 15.2695L78.238 5.66016C78.4645 4.68359 78.5231 3.97266 78.4137 3.52734C78.3122 3.07422 77.9997 2.84766 77.4762 2.84766C76.9528 2.84766 76.5348 3.07031 76.2223 3.51562C75.9098 3.95312 75.6481 4.66406 75.4372 5.64844L73.3864 15.2695C73.1286 16.4648 73.0427 17.3086 73.1286 17.8008C73.2067 18.2773 73.5348 18.5156 74.113 18.5156C74.6833 18.5156 75.1091 18.2734 75.3903 17.7891C75.6794 17.2891 75.945 16.4492 76.1872 15.2695ZM70.2341 15.2344L72.238 5.80078C73.0427 2.01953 74.988 0.128906 78.0739 0.128906C79.6364 0.128906 80.6755 0.601562 81.1911 1.54688C81.7067 2.48438 81.7614 3.90234 81.3552 5.80078L79.3512 15.2344C78.9216 17.2734 78.238 18.7852 77.3005 19.7695C76.363 20.7461 75.1091 21.2344 73.5387 21.2344C71.9762 21.2344 70.9255 20.7422 70.3864 19.7578C69.8552 18.7656 69.8044 17.2578 70.2341 15.2344ZM86.9459 15.2695L88.9967 5.66016C89.2233 4.68359 89.2819 3.97266 89.1725 3.52734C89.0709 3.07422 88.7584 2.84766 88.235 2.84766C87.7116 2.84766 87.2936 3.07031 86.9811 3.51562C86.6686 3.95312 86.4069 4.66406 86.1959 5.64844L84.1452 15.2695C83.8873 16.4648 83.8014 17.3086 83.8873 17.8008C83.9655 18.2773 84.2936 18.5156 84.8717 18.5156C85.442 18.5156 85.8678 18.2734 86.1491 17.7891C86.4381 17.2891 86.7038 16.4492 86.9459 15.2695ZM80.9928 15.2344L82.9967 5.80078C83.8014 2.01953 85.7467 0.128906 88.8327 0.128906C90.3952 0.128906 91.4342 0.601562 91.9498 1.54688C92.4655 2.48438 92.5202 3.90234 92.1139 5.80078L90.11 15.2344C89.6803 17.2734 88.9967 18.7852 88.0592 19.7695C87.1217 20.7461 85.8678 21.2344 84.2975 21.2344C82.735 21.2344 81.6842 20.7422 81.1452 19.7578C80.6139 18.7656 80.5631 17.2578 80.9928 15.2344ZM97.7867 2.78906L94.4352 18.5625H95.4664C96.0367 18.5625 96.4938 18.375 96.8375 18C97.1813 17.6172 97.4586 16.9297 97.6695 15.9375L99.8258 5.75391C100.06 4.68359 100.091 3.92188 99.9195 3.46875C99.7477 3.01562 99.3453 2.78906 98.7125 2.78906H97.7867ZM95.3023 21H90.7789L95.1617 0.375H99.7906C101.283 0.375 102.283 0.816406 102.791 1.69922C103.298 2.57422 103.365 3.89844 102.99 5.67188L101.021 14.9766C100.576 17.0547 99.9078 18.5781 99.0172 19.5469C98.1266 20.5156 96.8883 21 95.3023 21ZM107.75 21H104.972L109.355 0.375H113.257L112.976 15.4453L118.941 0.375H122.867L118.484 21H115.683L117.312 13.3125L118.929 6.25781L113.035 20.9062H110.539L110.761 6.25781L109.378 13.3125L107.75 21ZM124.778 14.8008H127.473L128.293 4.44141H128.247L124.778 14.8008ZM122.715 21H119.692L127.016 0.375H131.165L129.911 21H126.981L127.262 17.3203H123.934L122.715 21ZM137.306 11.3086L136.31 11.2617L134.247 21H131.107L135.49 0.375H140.681C141.759 0.375 142.517 0.59375 142.955 1.03125C143.392 1.46875 143.611 2.07422 143.611 2.84766C143.619 3.58984 143.486 4.60547 143.212 5.89453C142.939 7.16016 142.603 8.11328 142.205 8.75391C141.806 9.41016 141.224 9.85156 140.458 10.0781C141.13 10.2031 141.521 10.6836 141.63 11.5195C141.74 12.3633 141.513 14.1055 140.951 16.7461C140.388 19.3711 140.126 20.7891 140.165 21H137.025C136.978 20.8359 137.462 18.3711 138.478 13.6055C138.665 12.6914 138.681 12.0859 138.525 11.7891C138.369 11.4766 137.962 11.3164 137.306 11.3086ZM138.126 2.78906L136.837 8.82422H138.091C138.49 8.82422 138.802 8.73438 139.029 8.55469C139.255 8.38281 139.455 8.07422 139.626 7.62891C139.79 7.21484 139.97 6.54688 140.165 5.625L140.201 5.49609C140.435 4.37891 140.494 3.64844 140.376 3.30469C140.267 2.96094 139.872 2.78906 139.193 2.78906H138.126ZM145.147 21H141.983L146.366 0.375H149.506L147.479 9.86719L152.647 0.375H155.893L150.303 10.5469L151.78 21H148.463L147.186 11.3672L145.147 21ZM159.445 21H152.39L156.773 0.375H163.687L163.101 3.08203H159.327L158.062 9.08203H161.648L161.085 11.7305H157.499L156.105 18.293H160.019L159.445 21ZM165.176 21H162.047L165.844 3.09375H163.43L164.016 0.375H171.879L171.293 3.09375H168.973L165.176 21ZM175.337 21H168.283L172.665 0.375H179.579L178.993 3.08203H175.22L173.954 9.08203H177.54L176.978 11.7305H173.392L171.997 18.293H175.911L175.337 21ZM183.084 11.3086L182.088 11.2617L180.026 21H176.885L181.268 0.375H186.459C187.537 0.375 188.295 0.59375 188.733 1.03125C189.17 1.46875 189.389 2.07422 189.389 2.84766C189.397 3.58984 189.264 4.60547 188.99 5.89453C188.717 7.16016 188.381 8.11328 187.983 8.75391C187.584 9.41016 187.002 9.85156 186.237 10.0781C186.908 10.2031 187.299 10.6836 187.408 11.5195C187.518 12.3633 187.291 14.1055 186.729 16.7461C186.166 19.3711 185.905 20.7891 185.944 21H182.803C182.756 20.8359 183.24 18.3711 184.256 13.6055C184.444 12.6914 184.459 12.0859 184.303 11.7891C184.147 11.4766 183.74 11.3164 183.084 11.3086ZM183.905 2.78906L182.615 8.82422H183.869C184.268 8.82422 184.58 8.73438 184.807 8.55469C185.033 8.38281 185.233 8.07422 185.405 7.62891C185.569 7.21484 185.748 6.54688 185.944 5.625L185.979 5.49609C186.213 4.37891 186.272 3.64844 186.155 3.30469C186.045 2.96094 185.651 2.78906 184.971 2.78906H183.905ZM188.581 15.1992L188.968 13.3594H191.945L191.499 15.4336C191.257 16.5742 191.183 17.3828 191.277 17.8594C191.386 18.3203 191.706 18.5508 192.238 18.5508C192.777 18.5508 193.175 18.3594 193.433 17.9766C193.698 17.5781 193.917 16.9531 194.089 16.1016C194.277 15.2422 194.28 14.4883 194.101 13.8398C193.921 13.1914 193.57 12.5156 193.046 11.8125L191.863 10.2422C191.3 9.49219 190.909 8.72266 190.691 7.93359C190.464 7.13672 190.464 6.21484 190.691 5.16797C191.058 3.45703 191.652 2.19141 192.472 1.37109C193.3 0.542969 194.519 0.128906 196.128 0.128906C197.73 0.128906 198.71 0.613281 199.07 1.58203C199.437 2.55078 199.421 3.95703 199.023 5.80078L198.753 7.07812H195.859L196.175 5.60156C196.386 4.59375 196.452 3.87891 196.374 3.45703C196.288 3.01953 196.003 2.80078 195.519 2.80078C195.034 2.80078 194.648 2.96484 194.359 3.29297C194.077 3.62109 193.866 4.11328 193.726 4.76953C193.585 5.41797 193.581 5.94141 193.714 6.33984C193.855 6.72266 194.144 7.22266 194.581 7.83984L195.894 9.67969C196.566 10.6172 197.007 11.5508 197.218 12.4805C197.437 13.4023 197.437 14.4336 197.218 15.5742C196.812 17.4883 196.183 18.9141 195.331 19.8516C194.488 20.7734 193.253 21.2344 191.628 21.2344C190.011 21.2344 188.991 20.7227 188.57 19.6992C188.155 18.6602 188.159 17.1602 188.581 15.1992Z" fill="white"/>
</svg>
