<svg width="32" height="29" viewBox="0 0 32 29" fill="none" xmlns="http://www.w3.org/2000/svg">
<path fill-rule="evenodd" clip-rule="evenodd" d="M15.897 0C12.9251 0 10.5006 2.42452 10.5006 5.39644C10.5006 7.15381 11.3517 8.71589 12.6591 9.70232L7.45383 18.4153C6.81806 18.1533 6.12049 18.0106 5.39644 18.0106C2.42452 18.0106 0 20.4351 0 23.407C0 26.379 2.42452 28.8035 5.39644 28.8035C8.12304 28.8035 10.3812 26.7585 10.7367 24.1266H20.9562C21.3111 26.7591 23.5694 28.8035 26.2964 28.8035C29.2683 28.8035 31.6928 26.379 31.6928 23.407C31.6928 20.4351 29.2683 18.0106 26.2964 18.0106C23.5681 18.0106 21.3096 20.0533 20.9562 22.6875H10.7479C10.557 21.248 9.79697 19.9853 8.70175 19.1348L13.9183 10.4106C14.5335 10.6555 15.1964 10.7929 15.897 10.7929C18.8689 10.7929 21.2934 8.36837 21.2934 5.39644C21.2934 2.42452 18.8689 0 15.897 0Z" fill="white"/>
</svg>
